<mxfile host="app.diagrams.net" modified="2023-08-29T22:10:28.530Z" agent="Mozilla/5.0 (Macintosh; Intel Mac OS X 10_15_7) AppleWebKit/537.36 (KHTML, like Gecko) Chrome/116.0.0.0 Safari/537.36" etag="4qZ9vp40x6V335b5b_Bt" version="21.6.8" type="github">
  <diagram name="PÃ¡gina-1" id="yqzk6ZMdlbVqyRa3gDDR">
    <mxGraphModel dx="1063" dy="515" grid="1" gridSize="10" guides="1" tooltips="1" connect="1" arrows="1" fold="1" page="1" pageScale="1" pageWidth="827" pageHeight="1169" math="0" shadow="0">
      <root>
        <mxCell id="0" />
        <mxCell id="1" parent="0" />
        <mxCell id="cd_FtPFASh3WuwPh727u-1" value="teste" style="rounded=0;whiteSpace=wrap;html=1;" vertex="1" parent="1">
          <mxGeometry x="120" y="120" width="120" height="60" as="geometry" />
        </mxCell>
      </root>
    </mxGraphModel>
  </diagram>
</mxfile>
